<svg id="Layer_1" height="300" viewBox="0 0 32 32" width="300" xmlns="http://www.w3.org/2000/svg" data-name="Layer 1" version="1.1" xmlns:xlink="http://www.w3.org/1999/xlink" xmlns:svgjs="http://svgjs.dev/svgjs"><g width="100%" height="100%" transform="matrix(1,0,0,1,0,0)"><path d="m8.93 14a3 3 0 0 1 2.5 1.336l.812 1.219a1 1 0 0 0 .828.445h5.86a1 1 0 0 0 .832-.445l.812-1.219a3 3 0 0 1 2.496-1.336h7.616l-4.26-11.073a3 3 0 0 0 -2.796-1.927h-15.26a2.994 2.994 0 0 0 -2.793 1.921l-4.263 11.079zm1.07-8h12a1 1 0 0 1 0 2h-12a1 1 0 0 1 0-2zm-1 4h14a1 1 0 0 1 0 2h-14a1 1 0 0 1 0-2z" fill="#38a169" fill-opacity="1" data-original-color="#000000ff" stroke="none" stroke-opacity="1"/><path d="m23.07 16a1 1 0 0 0 -.832.445l-.812 1.219a2.993 2.993 0 0 1 -2.496 1.336h-5.86a2.993 2.993 0 0 1 -2.5-1.336l-.812-1.219a1 1 0 0 0 -.828-.445h-7.93v12a3 3 0 0 0 3 3h24a3 3 0 0 0 3-3v-12zm-5.07 10h-4a3 3 0 0 1 -3-3 1 1 0 0 1 2 0 1 1 0 0 0 1 1h4a1 1 0 0 0 1-1 1 1 0 0 1 2 0 3 3 0 0 1 -3 3z" fill="#38a169" fill-opacity="1" data-original-color="#000000ff" stroke="none" stroke-opacity="1"/></g></svg>