<svg id="Layer_1" enable-background="new 0 0 512 512" viewBox="0 0 512 512" xmlns="http://www.w3.org/2000/svg" width="300" height="300" version="1.1" xmlns:xlink="http://www.w3.org/1999/xlink" xmlns:svgjs="http://svgjs.dev/svgjs"><g width="100%" height="100%" transform="matrix(1,0,0,1,0,0)"><g id="Layer_2_00000016758243123723111160000015995014538716610476_"><g id="Layer_2_copy_11"><g id="_62"><path d="m89 392.9c-7.3 0-14.4 3-19.5 8.2-4.9 4.9-7.6 11.6-7.5 18.5.3 14.3 12 25.8 26.3 25.9h399.7v-52.6z" fill="#ed8936" fill-opacity="1" data-original-color="#000000ff" stroke="none" stroke-opacity="1"/><path d="m509.1 355.1c0-11.7-9.5-21.3-21.3-21.3h-399.6c-47.1 0-85.3 38.2-85.3 85.3 0 47.1 38.2 85.3 85.3 85.3h399.6c11.7 0 21.3-9.5 21.3-21.3 0-11.7-9.5-21.2-21.2-21.2h-399.7c-23.3 0-42.4-18.7-42.8-42.1-.4-23.8 19.6-43.4 43.6-43.4h398.9c11.7 0 21.2-9.6 21.2-21.3z" fill="#ed8936" fill-opacity="1" data-original-color="#000000ff" stroke="none" stroke-opacity="1"/><path d="m223 236.5-139.7-58.8v102.3c0 21.6 17.6 39.2 39.2 39.2h243.9c21.7 0 39.2-17.5 39.2-39.2v-102.3l-139.6 58.8c-13.8 5.8-29.3 5.8-43 0z" fill="#ed8936" fill-opacity="1" data-original-color="#000000ff" stroke="none" stroke-opacity="1"/><path d="m8.1 128.1 221.3 93.2c9.6 4.1 20.5 4.1 30.1 0l194.4-81.9v105.8l-31.8 55c-3.6 6.2-1.5 14.2 4.7 17.8 2 1.1 4.2 1.8 6.5 1.7h65.7c7.2 0 13-5.8 13-13 0-2.3-.6-4.5-1.7-6.5l-31.8-55v-116.1l2.3-1c6.7-2.8 9.9-10.6 7-17.3-1.3-3.2-3.9-5.7-7-7l-221.3-93.3c-9.6-4.1-20.5-4.1-30.1 0l-221.3 93.3c-6.7 2.8-9.9 10.6-7 17.3 1.3 3.1 3.8 5.6 7 7z" fill="#ed8936" fill-opacity="1" data-original-color="#000000ff" stroke="none" stroke-opacity="1"/></g></g></g></g></svg>