<svg id="Layer_1" enable-background="new 0 0 1024 1024" viewBox="0 0 1024 1024" xmlns="http://www.w3.org/2000/svg"><g id="XMLID_97_"><path id="XMLID_353_" d="m830.3 326.6v83h-548.5c-24.2 0-46 15.3-54.3 38l-117.2 322.2-15 41.2-.4 1c-5.5 15.2-4.3 31.5 2.5 45.3-10.9-13.2-17.2-30-17.2-47.8v-603c0-23.2 18.9-42 42-42h215.4c13.5 0 26.3 5.8 35.3 15.9l87.1 98.3c3.3 3.7 7.9 5.8 12.8 5.8h315.4c23.2.1 42.1 19 42.1 42.1z"/><path id="XMLID_347_" d="m940 465.4-134.4 372.5c-2.6 7-9.3 11.7-16.7 11.7h-639.7c-3.7 0-7.1-1-10.1-3.1-5.4-3.8-9.8-11.9-6.6-20.8l132.5-364.4c2.6-7 9.3-11.7 16.7-11.7h647.6c6.7 0 10.3 1.7 11.4 3.4 1.2 1.6 1.7 5.8-.7 12.4z"/></g></svg>