<svg enable-background="new 0 0 64 64" viewBox="0 0 64 64" xmlns="http://www.w3.org/2000/svg" width="300" height="300" version="1.1" xmlns:xlink="http://www.w3.org/1999/xlink" xmlns:svgjs="http://svgjs.dev/svgjs"><g width="100%" height="100%" transform="matrix(1,0,0,1,0,0)"><g id="Layer_1"/><g id="Layer_2"><g><path d="m6.816153 16.5761242c.0141602 0 .0288086 0 .0429688-.0009766.2879639-.0123291.5665283-.0629883.8447876-.117981 1.92347 9.5652218 15.0474758 8.2409286 15.2650661-1.5256853.0000095.0001125.0000095-6.1809788.0000095-6.1809788.97855-.7432632 3.9525681-2.9771061 2.3975811-4.1313624-.3756088-.2383279-9.1607651-5.6943824-16.5343002-.1553201-2.365964.3495726-4.8099447 2.0967407-2.9942894 11.3182769.0978055.4639492.5074734.7940273.9781765.7940273zm14.1528316-1.6445303c-.1609955 7.5497999-10.2977095 8.2791014-11.3598633.8046875 1.7181311-1.0608482 2.9380598-2.7992668 3.7167969-4.6269531 2.5748549.0875425 5.2391396-.262619 7.6430664-1.2587891zm-12.1855469-8.4472661c.0405274-.0087891.0761719-.0175781.0859375-.0205078.0307617 0 .1196289-.0087891.1503906-.0117188.2768555.0419922.5566406-.0302734.7753906-.2050781 5.1049805-4.0507813 11.2299805-1.6396484 13.5546875-.4628906-.5244141.6044922-1.159668 1.1357422-1.8969727 1.5839844-3.6386719 2.1933599-8.6445313 1.7060552-8.6962891 1.7021489-.5439472-.056654-.9805584.3158722-1.1122847.8507137-.1728268.7541752-1.9195824 4.0940628-4.0327344 4.52038-1.0014646-5.4355469-.0859373-7.6816411 1.1718747-7.9570317z" fill="#4c51bf" fill-opacity="1" data-original-color="#000000ff" stroke="none" stroke-opacity="1"/><path d="m24.8635159 49.0106964v-5.5712891h6.8896484c5.6141834-.179493 5.6134701-8.3931503-.0000935-8.5712929.0000935.0000038-1.7967815.0000038-1.7967815.0000038l-5.6035156-8.0966816c-.5595703-.8085938-1.4775391-1.2910156-2.4560547-1.2910156h-12.6298828c-1.097168 0-2.1044917.6025391-2.6293941 1.5732422l-4.2890625 7.95508c-.6411134 1.1904297-.3837892 2.6464844.6254883 3.5400391l5.6430659 4.9941406c1.0857782 1.1487694 3.8149633 1.0807877 5.2465992 1.3388863 4.7783108.5247536 6.2832546-6.2499275 1.7674541-7.8379326.0001068.0000229-3.1883698-1.0751724-3.1883698-1.0751724l-1.6669922-2.5292969c-.7376633-1.0808411-2.3766193-.0114555-1.6698923 1.1015968-.0000296-.0000343 1.8564157 2.8163719 1.8564157 2.8163719.1225586.1855469.3041992.3251953.515625.3964844l3.5141602 1.1845703c.8217773.2773438 1.3740234 1.0556641 1.3740234 1.9355469.0262794 1.1769981-1.0785799 2.2018433-2.251483 2.0234146.0000181.0000229-3.1757631-.4013443-3.1757631-.4013443-.371582-.046875-.7163086-.203125-.9975586-.4521484l-5.6411128-4.9912109c-.3061523-.2714844-.3867188-.7324219-.190918-1.0957031l4.2875972-7.9521503c.175293-.3232422.5083008-.5244141.8701172-.5244141h12.629883c.3222656 0 .6254883.1601563.8115234.4296875l5.9018555 8.5273457c.1870117.2695313.4941406.4306641.8222656.4306641h2.3208008c2.9552784.0738907 2.971632 4.4922791-.0000744 4.5712852.0000744.0000038-6.4584217.0000038-6.4584217.0000038l-.628418-.8457031c-.0002441-.0003052-.0006104-.0004883-.0008545-.0007935l-4.6397705-6.2599487c-.328125-.4433594-.9550781-.5380859-1.3984375-.2080078-.4438477.3291016-.5371094.9550781-.2080078 1.3994141l4.4443359 5.9962158v6.4901123h-15.707519c-1.3104982.020813-1.3175726 1.9777412.0000458 1.9999962-.0000458.0000038 16.7074738.0000038 16.7074738.0000038.5522455-.0000001.9999995-.4472657.9999995-1.0000001z" fill="#4c51bf" fill-opacity="1" data-original-color="#000000ff" stroke="none" stroke-opacity="1"/><path d="m61.0017014 7.010695h-34c-.5522461 0-1 .4472656-1 1.0000005s.4477539 1 1 1h33v51h-43v-7c-.0151272-1.3133049-1.9825926-1.3131905-1.9999933.000042-.0000067-.000042-.0000067 7.999958-.0000067 7.999958 0 .5527344.4477539 1 1 1h45c.5522461 0 1-.4472656 1-1v-53c0-.5527349-.447754-1.0000005-1-1.0000005z" fill="#4c51bf" fill-opacity="1" data-original-color="#000000ff" stroke="none" stroke-opacity="1"/><path d="m48.0017014 12.0106955c-9.2726593.3514938-9.2718964 13.6491098.0000877 14.0000086 3.8597755-.0000095 6.9999123-3.1406345 6.9999123-7.0000095 0-.5527344-.4477539-1-1-1s-1 .4472656-1 1c-.2343292 6.6165428-9.7659187 6.6165257-10.0000076-.000082-.1033211-3.8875895 4.5839729-6.3916302 7.7588768-4.1687431.4589043.3055449 1.0804863.1795683 1.3861504-.2794161.9560241-1.8192684-2.9159204-2.562606-4.1450196-2.5517579z" fill="#4c51bf" fill-opacity="1" data-original-color="#000000ff" stroke="none" stroke-opacity="1"/><path d="m56.6603928 12.2577658c-.4165039-.3632813-1.0463867-.3222656-1.4111328.0947266l-6.2963867 7.1953115-2.2441406-2.2441406c-.9276314-.9199963-2.3354607.4849567-1.4140167 1.4141045-.0000458-.000042 2.9999542 2.999958 2.9999542 2.999958.1955681.1949482.464798.3026047.7402344.2919922.2768555-.0087891.5371094-.1318359.7192383-.3408203l7-7.999999c.3637694-.4150392.3217772-1.0468751-.0937501-1.4111329z" fill="#4c51bf" fill-opacity="1" data-original-color="#000000ff" stroke="none" stroke-opacity="1"/><path d="m30.0016994 28.0106945c0 .5527344.4477539 1 1 1h14.0000019c.5522461 0 1-.4472656 1-1s-.4477539-1-1-1h-14.0000019c-.552246 0-1 .4472656-1 1z" fill="#4c51bf" fill-opacity="1" data-original-color="#000000ff" stroke="none" stroke-opacity="1"/><path d="m46.0017014 33.0106964c0-.5527344-.4477539-1-1-1h-9c-.5522461 0-1 .4472656-1 1s.4477539 1 1 1h9c.552246 0 1-.4472656 1-1z" fill="#4c51bf" fill-opacity="1" data-original-color="#000000ff" stroke="none" stroke-opacity="1"/><path d="m56.0017014 40.0106964c0-.5527344-.4477539-1-1-1h-14c-.5522461 0-1 .4472656-1 1v8c0 .5527344.4477539 1 1 1h14c.5522461 0 1-.4472656 1-1zm-2 7h-12v-6h12z" fill="#4c51bf" fill-opacity="1" data-original-color="#000000ff" stroke="none" stroke-opacity="1"/><path d="m55.0017014 53.0106964h-19c-.5522461 0-1 .4472656-1 1s.4477539 1 1 1h19c1.308403-.020134 1.319271-1.9775848 0-2z" fill="#4c51bf" fill-opacity="1" data-original-color="#000000ff" stroke="none" stroke-opacity="1"/></g></g></g></svg>