<svg id="Layer_1" height="300" viewBox="0 0 512 512" width="300" xmlns="http://www.w3.org/2000/svg" data-name="Layer 1" version="1.1" xmlns:xlink="http://www.w3.org/1999/xlink" xmlns:svgjs="http://svgjs.dev/svgjs"><g width="100%" height="100%" transform="matrix(1,0,0,1,0,0)"><path d="m350.247 334.957a33.844 33.844 0 0 0 -19.5-30.657v61.315a33.847 33.847 0 0 0 19.5-30.658zm-249.761-287.285a84.486 84.486 0 1 0 26.966 164.576l52.362 14.03-11.663-43.523a84.491 84.491 0 0 0 -67.665-135.083zm42.775 108.15a8 8 0 0 1 0 16h-85.549a8 8 0 1 1 0-16zm0-63.328a8 8 0 0 1 0 16h-85.549a8 8 0 0 1 0-16zm0 31.664a8 8 0 1 1 0 16h-85.549a8 8 0 0 1 0-16zm331.239-108.158h-147.762a21.567 21.567 0 0 0 -21.5 21.5v104.939a21.568 21.568 0 0 0 21.5 21.5h16.267v38.967l38.482-38.967h93.013a21.568 21.568 0 0 0 21.5-21.5v-104.939a21.567 21.567 0 0 0 -21.5-21.5zm-15.258 100.652a8 8 0 1 1 0 16h-117.25a8 8 0 0 1 0-16zm0-69.361a8 8 0 0 1 0 16h-117.25a8 8 0 0 1 0-16zm0 34.681a8 8 0 1 1 0 16h-117.25a8 8 0 0 1 0-16zm-94.262 315.3a8 8 0 0 1 11.313-11.312l16.886 16.886a8 8 0 1 1 -11.312 11.313l-16.887-16.883zm31.32-54.315a8 8 0 1 1 0-16h23.881a8 8 0 0 1 0 16zm-11.779-88.3a8 8 0 0 1 11.312 11.313l-16.886 16.886a8 8 0 0 1 -11.313-11.312zm-236.475 22.279h-60.183a57.274 57.274 0 1 0 0 114.547h60.182v-114.547zm16-3.97c33.858-9.776 66.31-27.57 95.943-44.59v208.189c-29.668-17.6-61.138-33.406-95.944-41.8v-121.8zm111.942-53.815q6.534-3.762 12.848-7.327a17.361 17.361 0 0 1 25.914 15.159v212.2a17.367 17.367 0 0 1 -26.7 14.692q-5.993-3.8-12.065-7.578v-227.146zm-127.944 276.849v-88.273c-.453-.082-.906-.166-1.361-.245h-41.129v57.045a31.535 31.535 0 0 0 31.474 31.473z" fill-rule="evenodd" fill="#97266d" fill-opacity="1" data-original-color="#000000ff" stroke="none" stroke-opacity="1"/></g></svg>