<svg id="Capa_1" enable-background="new 0 0 510 510" height="300" viewBox="0 0 510 510" width="300" xmlns="http://www.w3.org/2000/svg" version="1.1" xmlns:xlink="http://www.w3.org/1999/xlink" xmlns:svgjs="http://svgjs.dev/svgjs"><g width="100%" height="100%" transform="matrix(1,0,0,1,0,0)"><g><path d="m362.966 88h-59v79c0 24.81-20.19 45-45 45h-128c-24.81 0-45-20.19-45-45v-79h-59c-8.28 0-15 6.72-15 15v392c0 8.28 6.72 15 15 15h336c8.28 0 15-6.72 15-15v-392c0-8.28-6.719-15-15-15zm-189.39 336.61-48 48c-5.812 5.811-15.325 5.894-21.22 0l-24-24c-5.85-5.86-5.85-15.36 0-21.221 5.86-5.85 15.36-5.85 21.22 0l13.39 13.4 37.39-37.4c5.86-5.85 15.36-5.85 21.22 0 5.85 5.861 5.85 15.361 0 21.221zm0-88-48 48c-5.812 5.811-15.325 5.894-21.22 0l-24-24c-5.85-5.86-5.85-15.36 0-21.221 5.86-5.85 15.36-5.85 21.22 0l13.39 13.4 37.39-37.4c5.86-5.85 15.36-5.85 21.22 0 5.85 5.861 5.85 15.361 0 21.221zm125.39 116.39h-72c-8.28 0-15-6.72-15-15s6.72-15 15-15h72c8.28 0 15 6.72 15 15s-6.719 15-15 15zm0-88h-72c-8.28 0-15-6.72-15-15s6.72-15 15-15h72c8.28 0 15 6.72 15 15s-6.719 15-15 15zm0-88h-208c-8.28 0-15-6.72-15-15s6.72-15 15-15h208c8.28 0 15 6.72 15 15s-6.719 15-15 15z" fill="#319795" fill-opacity="1" data-original-color="#000000ff" stroke="none" stroke-opacity="1"/><path d="m130.966 182h128c8.284 0 15-6.716 15-15 0-11.94 0-81.051 0-88 0-8.284-6.716-15-15-15h-17v-49c0-8.284-6.716-15-15-15h-64c-8.284 0-15 6.716-15 15v49h-17c-8.284 0-15 6.716-15 15v88c0 8.284 6.716 15 15 15z" fill="#319795" fill-opacity="1" data-original-color="#000000ff" stroke="none" stroke-opacity="1"/><path d="m495.987 159.56-32-56c-5.727-10.039-20.278-10.101-26.04 0l-32 56c-2.656 4.619-1.98 7.292-1.98 24.44h94c-.001-17.655.631-19.9-1.98-24.44z" fill="#319795" fill-opacity="1" data-original-color="#000000ff" stroke="none" stroke-opacity="1"/><path d="m403.966 495c0 8.28 6.72 15 15 15h64c8.28 0 15-6.72 15-15v-281h-94z" fill="#319795" fill-opacity="1" data-original-color="#000000ff" stroke="none" stroke-opacity="1"/></g></g></svg>