<svg enable-background="new 0 0 32 32" viewBox="0 0 32 32" xmlns="http://www.w3.org/2000/svg" width="300" height="300" version="1.1" xmlns:xlink="http://www.w3.org/1999/xlink" xmlns:svgjs="http://svgjs.dev/svgjs"><g width="100%" height="100%" transform="matrix(1,0,0,1,0,0)"><g id="GUIDE"/><g id="Layer_1"/><g id="Layer_2"/><g id="Layer_3"/><g id="Layer_4"/><g id="Layer_5"/><g id="Layer_7"/><g id="Layer_8"/><g id="Layer_9"/><g id="Layer_10"/><g id="Layer_11"/><g id="Layer_12"/><g id="Layer_13"/><g id="Layer_14"/><g id="Layer_15"/><g id="Layer_16"/><g id="Layer_17"/><g id="Layer_18"/><g id="Layer_19"/><g id="Layer_20"/><g id="Layer_21"/><g id="Layer_22"/><g id="Layer_23"/><g id="Layer_24"/><g id="Layer_25"/><g id="Layer_26"/><g id="Layer_27"/><g id="Layer_28"/><g id="Layer_29"/><g id="Layer_30"/><g id="Layer_31"/><g id="Layer_32"/><g id="Layer_33"/><g id="Layer_34"/><g id="Layer_35"/><g id="Layer_36"/><g id="Layer_37"/><g id="Layer_38"/><g id="Layer_39"/><g id="Layer_40"/><g id="Layer_41"/><g id="Layer_42"/><g id="Layer_43"/><g id="Layer_44"/><g id="Layer_45"/><g id="Layer_46"/><g id="Layer_47"/><g id="Layer_48"/><g id="Layer_49"/><g id="Layer_50"/><g id="Layer_51"><g><path d="m19.46 25.49c-.26 0-.51-.1-.71-.29-.39-.39-.39-1.02 0-1.41l6.78-6.79h-21.53c-.55 0-1-.45-1-1s.45-1 1-1h21.53l-6.78-6.78c-.2-.2-.29-.45-.29-.71s.1-.51.29-.71c.39-.39 1.02-.39 1.41 0l8.49 8.49c.17.18.26.4.28.63v.2c-.02.19-.1.37-.24.53-.02.02-.03.04-.05.06l-8.48 8.48c-.19.2-.45.3-.7.3z" fill="#000000" fill-opacity="0.5725490196078431" data-original-color="#000000ff" stroke="none" stroke-opacity="1"/></g></g></g></svg>