<svg height="512" viewBox="0 0 24 24" width="512" xmlns="http://www.w3.org/2000/svg"><g id="Layer_2" data-name="Layer 2"><path d="m18 22.75h-12a3.755 3.755 0 0 1 -3.75-3.75v-14a3.755 3.755 0 0 1 3.75-3.75h12a3.755 3.755 0 0 1 3.75 3.75v14a3.755 3.755 0 0 1 -3.75 3.75zm-12-20a2.253 2.253 0 0 0 -2.25 2.25v14a2.253 2.253 0 0 0 2.25 2.25h12a2.253 2.253 0 0 0 2.25-2.25v-14a2.253 2.253 0 0 0 -2.25-2.25z"/><path d="m17 14.75h-10a.75.75 0 0 1 0-1.5h10a.75.75 0 0 1 0 1.5z"/><path d="m17 10.75h-10a.75.75 0 0 1 0-1.5h10a.75.75 0 0 1 0 1.5z"/><path d="m13 6.75h-6a.75.75 0 0 1 0-1.5h6a.75.75 0 0 1 0 1.5z"/><path d="m17 18.75h-4a.75.75 0 0 1 0-1.5h4a.75.75 0 0 1 0 1.5z"/></g></svg>