<?xml version="1.0" encoding="UTF-8"?>
<svg id="Layer_2" data-name="Layer 2" xmlns="http://www.w3.org/2000/svg" viewBox="0 0 55.64 55.64">
  <defs>
    <style>
      .cls-1 {
        fill: #fff;
      }
    </style>
  </defs>
  <g id="ELEMENTS">
    <path class="cls-1" d="M0,12.96c-.03-3.66,1.21-6.75,3.94-9.21.99-.9,1.92-1.88,2.97-2.69,2.08-1.6,4.14-1.36,5.93.57.13.14.26.28.37.44,1.92,2.62,3.89,5.2,5.74,7.86,1.64,2.34,1.5,3.83-.38,6-.46.53-.98,1-1.47,1.5-.58.59-1.19,1.15-1.74,1.77-2.45,2.76-2.59,4.06-.39,7.05,3.87,5.26,8.44,9.86,13.61,13.85.7.54,1.5.95,2.27,1.4,1.63.95,3.21.74,4.61-.42,1.17-.97,2.24-2.07,3.31-3.16,2.92-2.98,4.37-3.11,7.76-.64,2.32,1.69,4.65,3.34,6.95,5.05,2.5,1.87,2.85,4.15.89,6.55-1.24,1.52-2.62,2.96-4.08,4.27-2.43,2.18-5.45,2.6-8.58,2.46-4.16-.18-7.97-1.61-11.62-3.47-7.78-3.96-14.25-9.55-19.77-16.26-3.79-4.61-6.93-9.6-8.85-15.28-.43-1.26-.78-2.56-1.03-3.86C.21,15.49.14,14.22,0,12.96Z"/>
  </g>
</svg>