<?xml version="1.0" encoding="UTF-8"?>
<svg id="Layer_2" data-name="Layer 2" xmlns="http://www.w3.org/2000/svg" viewBox="0 0 55.34 55.34">
  <defs>
    <style>
      .cls-1 {
        fill: #fff;
      }
    </style>
  </defs>
  <g id="ELEMENTS">
    <g>
      <path class="cls-1" d="M42.32,9.88c-1.79,0-3.24,1.45-3.24,3.24s1.45,3.24,3.24,3.24,3.24-1.45,3.24-3.24-1.45-3.24-3.24-3.24Z"/>
      <path class="cls-1" d="M27.9,14.04c-7.51,0-13.63,6.11-13.63,13.63s6.11,13.63,13.63,13.63,13.63-6.11,13.63-13.63-6.11-13.63-13.63-13.63ZM27.9,36.4c-4.81,0-8.73-3.92-8.73-8.73s3.92-8.73,8.73-8.73,8.73,3.92,8.73,8.73-3.92,8.73-8.73,8.73Z"/>
      <path class="cls-1" d="M38.72,55.34h-22.09C7.46,55.34,0,47.88,0,38.72v-22.1C0,7.46,7.46,0,16.62,0h22.09c9.17,0,16.62,7.46,16.62,16.62v22.1c0,9.17-7.46,16.62-16.62,16.62ZM16.62,5.21c-6.3,0-11.42,5.12-11.42,11.42v22.1c0,6.3,5.12,11.42,11.42,11.42h22.09c6.3,0,11.42-5.12,11.42-11.42v-22.1c0-6.3-5.12-11.42-11.42-11.42h-22.09Z"/>
    </g>
  </g>
</svg>