<?xml version="1.0" encoding="UTF-8"?>
<svg id="Layer_2" data-name="Layer 2" xmlns="http://www.w3.org/2000/svg" viewBox="0 0 55.64 40.77">
  <defs>
    <style>
      .cls-1 {
        fill: #fff;
      }
    </style>
  </defs>
  <g id="ELEMENTS">
    <g>
      <path class="cls-1" d="M28.05,25.8C26.09,24.58,3.57,1.68,2.58,0h50.46c.04.13.09.25.13.38-8.4,8.51-16.8,17.01-25.12,25.43Z"/>
      <path class="cls-1" d="M52.95,40.77H2.64c-.03-.1-.07-.17-.08-.24,0-.07-.02-.17.01-.21.26-.33.52-.67.81-.96,5.55-5.55,11.1-11.09,16.81-16.79.81.77,1.57,1.44,2.28,2.17,1.11,1.16,2.14,2.43,3.29,3.53,1.94,1.84,2.24,1.82,4.12,0,1.15-1.11,2.23-2.3,3.34-3.46.72-.75,1.44-1.51,2.25-2.35,5.89,6,11.73,11.95,17.57,17.9-.03.13-.06.27-.09.4Z"/>
      <path class="cls-1" d="M17.98,20.55c-5.91,6-11.78,11.95-17.98,18.25V2.32c.5.37,1,.63,1.4,1.04,5.27,5.35,10.53,10.72,15.78,16.09.24.24.41.57.8,1.1Z"/>
      <path class="cls-1" d="M37.66,20.11c6.07-5.73,11.58-12.09,17.98-17.77v35.81c-1.44-.73-16.8-16.06-17.98-18.03Z"/>
    </g>
  </g>
</svg>