<?xml version="1.0" encoding="UTF-8"?>
<svg id="Layer_2" data-name="Layer 2" xmlns="http://www.w3.org/2000/svg" viewBox="0 0 55.64 55.78">
  <defs>
    <style>
      .cls-1 {
        fill-rule: evenodd;
      }

      .cls-1, .cls-2 {
        fill: #fff;
      }
    </style>
  </defs>
  <g id="ELEMENTS">
    <g>
      <path class="cls-2" d="M0,55.78l4-14.92c-2.26-4.08-3.46-8.66-3.46-13.31C.54,12.36,12.9,0,28.09,0s27.55,12.36,27.55,27.55-12.36,27.55-27.55,27.55c-4.56,0-9.06-1.15-13.09-3.34L0,55.78ZM15.74,46.17l.94.56c3.47,2.07,7.41,3.16,11.4,3.16,12.32,0,22.34-10.02,22.34-22.34S40.41,5.21,28.09,5.21,5.75,15.23,5.75,27.55c0,4.07,1.13,8.07,3.27,11.58l.58.95-2.23,8.33,8.38-2.24Z"/>
      <path class="cls-1" d="M38.34,31.38c-1.13-.68-2.61-1.44-3.95-.89-1.02.42-1.68,2.02-2.34,2.84-.34.42-.75.49-1.27.28-3.85-1.53-6.79-4.1-8.92-7.64-.36-.55-.3-.98.14-1.49.64-.75,1.45-1.61,1.62-2.63.17-1.02-.3-2.21-.72-3.11-.54-1.16-1.14-2.81-2.3-3.46-1.07-.6-2.47-.27-3.42.51-1.64,1.33-2.43,3.43-2.41,5.5,0,.59.08,1.18.22,1.75.33,1.37.96,2.64,1.67,3.86.54.92,1.12,1.8,1.75,2.66,2.06,2.8,4.62,5.22,7.58,7.04,1.48.91,3.08,1.7,4.73,2.25,1.85.61,3.5,1.25,5.5.87,2.09-.4,4.16-1.69,4.99-3.71.25-.6.37-1.26.23-1.89-.28-1.3-2.05-2.08-3.11-2.71Z"/>
    </g>
  </g>
</svg>